<svg xmlns="http://www.w3.org/2000/svg" viewBox="0 0 512 512" width="100%" height="100%">
  <circle cx="260" cy="260" r="240" fill="#a18562" />
  <circle cx="256" cy="256" r="240" fill="#b09573" />

  <g id="mango">
    <path d="M 120 220 C 70 170, 150 100, 270 105 C 380 110, 350 190, 250 220 C 180 240, 150 240, 120 220 Z" fill="#99805d" opacity="0.5" transform="translate(10, 15)" />
    
    <g>
      <clipPath id="mango-clip">
        <path d="M 115 210 C 65 160, 145 90, 265 95 C 375 100, 345 180, 245 210 C 175 230, 145 230, 115 210 Z" />
      </clipPath>
      
      <path d="M 115 210 C 65 160, 145 90, 265 95 C 375 100, 345 180, 245 210 C 175 230, 145 230, 115 210 Z" fill="#ffcc00" />
      
      <g clip-path="url(#mango-clip)">
        <path d="M 90 300 L 190 50 L 240 50 L 140 300 Z" fill="#ffa600" opacity="0.6" />
        <path d="M 180 300 L 280 50 L 330 50 L 230 300 Z" fill="#ffa600" opacity="0.6" />
        <path d="M 270 300 L 370 50 L 420 50 L 320 300 Z" fill="#ffa600" opacity="0.6" />
      </g>
    </g>
  </g>

  <g id="coconut-sauce">
    <circle cx="406" cy="230" r="60" fill="#99805d" opacity="0.6" />
    <circle cx="396" cy="220" r="60" fill="#9fd2f2" />
    <circle cx="396" cy="220" r="50" fill="#8cbcdb" />
    <circle cx="393" cy="217" r="42" fill="#ffffff" />
  </g>

  <g id="sticky-rice">
    <path d="M 266 380 C 226 380, 196 340, 166 310 C 136 280, 136 240, 166 200 C 196 170, 236 150, 266 150 C 306 150, 346 170, 376 200 C 406 240, 396 280, 376 310 C 346 340, 306 380, 266 380 Z" fill="#99805d" opacity="0.5" transform="translate(15, 15)" />
    
    <path d="
      M 256, 170 
      C 275,170 285,185 300,185 
      C 315,185 330,175 343,185 
      C 356,195 352,212 363,225 
      C 374,238 390,242 390,256 
      C 390,270 374,274 363,287 
      C 352,300 356,317 343,327 
      C 330,337 315,327 300,327 
      C 285,327 275,342 256,342 
      C 237,342 227,327 212,327 
      C 197,327 182,337 169,327 
      C 156,317 160,300 149,287 
      C 138,274 122,270 122,256 
      C 122,242 138,238 149,225 
      C 160,212 156,195 169,185 
      C 182,175 197,185 212,185 
      C 227,185 237,170 256,170 Z" 
      fill="#f5f5f5" />
    
    <path d="
      M 256, 175 
      C 273,175 282,189 296,189 
      C 310,189 324,180 336,189 
      C 348,198 344,213 354,225 
      C 364,237 379,241 379,253 
      C 379,265 364,269 354,281 
      C 344,293 348,308 336,317 
      C 324,326 310,317 296,317 
      C 282,317 273,331 256,331 
      C 239,331 230,317 216,317 
      C 202,317 188,326 176,317 
      C 164,308 168,293 158,281 
      C 148,269 133,265 133,253 
      C 133,241 148,237 158,225 
      C 168,213 164,198 176,189 
      C 188,180 202,189 216,189 
      C 230,189 239,175 256,175 Z" 
      fill="#ffffff" />

    <g id="beans" fill="#ffcc00">
      <rect x="250" y="215" width="12" height="20" rx="6" />
      <rect x="250" y="270" width="12" height="20" rx="6" />
      <rect x="218" y="244" width="20" height="12" rx="6" />
      <rect x="274" y="244" width="20" height="12" rx="6" />
    </g>
  </g>
</svg>
